<?xml version="1.0" encoding="UTF-8" standalone="no"?>
<!-- Created with Inkscape (http://www.inkscape.org/) -->

<svg
   width="150mm"
   height="150mm"
   viewBox="0 0 149.99999 150"
   version="1.1"
   id="svg5"
   inkscape:version="1.1.2 (0a00cf5339, 2022-02-04)"
   sodipodi:docname="favicon0_noShadow.svg"
   xmlns:inkscape="http://www.inkscape.org/namespaces/inkscape"
   xmlns:sodipodi="http://sodipodi.sourceforge.net/DTD/sodipodi-0.dtd"
   xmlns="http://www.w3.org/2000/svg"
   xmlns:svg="http://www.w3.org/2000/svg">
  <sodipodi:namedview
     id="namedview7"
     pagecolor="#161616"
     bordercolor="#eeeeee"
     borderopacity="1"
     inkscape:pageshadow="0"
     inkscape:pageopacity="0"
     inkscape:pagecheckerboard="0"
     inkscape:document-units="mm"
     showgrid="true"
     units="mm"
     width="256px"
     inkscape:zoom="0.70710678"
     inkscape:cx="331.63308"
     inkscape:cy="323.1478"
     inkscape:window-width="1886"
     inkscape:window-height="1025"
     inkscape:window-x="34"
     inkscape:window-y="0"
     inkscape:window-maximized="1"
     inkscape:current-layer="layer1">
    <inkscape:grid
       type="xygrid"
       id="grid73874"
       visible="false" />
  </sodipodi:namedview>
  <defs
     id="defs2">
    <rect
       x="53.225235"
       y="512.16541"
       width="711.71014"
       height="446.3363"
       id="rect50645" />
    <rect
       x="346.25385"
       y="385.4328"
       width="242.7775"
       height="201.16441"
       id="rect30843" />
    <rect
       x="96.856628"
       y="146.12955"
       width="721.29968"
       height="671.97717"
       id="rect3577" />
    <linearGradient
       id="linearGradient39043"
       inkscape:swatch="gradient">
      <stop
         style="stop-color:#2e12d8;stop-opacity:1;"
         offset="0"
         id="stop39039" />
      <stop
         style="stop-color:#2e12d8;stop-opacity:0;"
         offset="1"
         id="stop39041" />
    </linearGradient>
    <linearGradient
       id="linearGradient30520"
       inkscape:swatch="gradient">
      <stop
         style="stop-color:#3da5d9;stop-opacity:1;"
         offset="0"
         id="stop30516" />
      <stop
         style="stop-color:#3da5d9;stop-opacity:0;"
         offset="1"
         id="stop30518" />
    </linearGradient>
    <linearGradient
       id="98CE00"
       inkscape:swatch="solid">
      <stop
         style="stop-color:#00ff00;stop-opacity:1;"
         offset="0"
         id="stop22410" />
    </linearGradient>
  </defs>
  <g
     inkscape:label="Layer 1"
     inkscape:groupmode="layer"
     id="layer1">
    <g
       id="g73882"
       transform="matrix(1.005471,0,0,0.98332139,-212.38061,230.1145)">
      <ellipse
         style="fill:#adadff;fill-opacity:1;stroke:none;stroke-width:37.7953;stroke-miterlimit:4;stroke-dasharray:none;stroke-opacity:1"
         id="path21717-2-2"
         cx="285.61734"
         cy="-210.28239"
         rx="15.874863"
         ry="23.735193" />
      <path
         id="path21330-7-0"
         style="fill:#adadff;fill-opacity:1;stroke:none;stroke-width:9.1537;stroke-miterlimit:4;stroke-dasharray:none;stroke-opacity:1"
         inkscape:transform-center-x="-4.4642546"
         inkscape:transform-center-y="-1.6099138"
         d="m 293.97138,-122.04078 a 22.399208,27.521076 62.822608 0 0 -9.86033,-0.58968 c 0.73405,0.66313 1.22451,1.18727 1.32194,1.49189 0.72389,2.2634 -8.02453,27.620569 -5.27014,27.823574 2.7544,0.203005 9.37882,-25.310584 11.40933,-27.370984 0.29249,-0.2968 1.17726,-0.77345 2.3992,-1.3548 z" />
      <path
         id="path20674-36-0"
         style="fill:#adadff;fill-opacity:1;stroke-width:16.6541"
         d="m 257.37076,-199.99989 c -0.23294,0.001 -0.46546,0.027 -0.69503,0.081 -2.87239,0.53938 -5.61139,1.77731 -8.26876,3.14309 -5.21048,2.76837 -9.88561,6.74826 -14.27148,11.0472 -3.67625,3.60829 -7.18001,7.46484 -10.50943,11.51998 -4.07957,5.11599 -7.52034,10.9666 -10.08259,17.32665 -0.85444,2.14565 -1.6348,4.34153 -2.24173,6.60302 -0.20867,1.19803 0.6055,2.53879 1.66554,2.52725 1.12356,0.11477 2.07501,-0.73653 3.02978,-1.30293 6.58305,-4.12718 12.32806,-9.82094 18.58388,-14.56423 3.04561,-2.28594 6.27568,-4.2067 9.58495,-5.89016 1.11898,-0.59448 2.23445,-1.20653 3.36,-1.7886 a 18.092415,54.883336 41.168691 0 0 14.66267,-23.5674 c -0.32324,-0.66394 -0.61897,-1.34631 -0.87281,-2.05323 -0.57005,-1.33574 -1.51389,-2.57595 -2.79157,-2.90302 -0.37615,-0.1155 -0.76517,-0.18099 -1.15342,-0.17867 z" />
      <path
         id="path20674-36-0-8"
         style="fill:#adadff;fill-opacity:1;stroke-width:16.6541"
         d="m 314.30699,-199.99989 c 0.23294,0.001 0.46546,0.027 0.69503,0.081 2.87239,0.53938 5.61139,1.77731 8.26876,3.14309 5.21048,2.76837 9.88561,6.74826 14.27148,11.0472 3.67625,3.60829 7.18001,7.46484 10.50943,11.51998 4.07957,5.11599 7.52034,10.9666 10.08259,17.32665 0.85444,2.14565 1.6348,4.34153 2.24173,6.60302 0.20867,1.19803 -0.6055,2.53879 -1.66554,2.52725 -1.12356,0.11477 -2.07501,-0.73653 -3.02978,-1.30293 -6.58305,-4.12718 -12.32806,-9.82094 -18.58388,-14.56423 -3.04561,-2.28594 -6.27568,-4.2067 -9.58495,-5.89016 -1.11898,-0.59448 -2.23445,-1.20653 -3.36,-1.7886 a 54.883336,18.092415 48.831309 0 1 -14.66267,-23.5674 c 0.32324,-0.66394 0.61897,-1.34631 0.87281,-2.05323 0.57005,-1.33574 1.51389,-2.57595 2.79157,-2.90302 0.37615,-0.1155 0.76517,-0.18099 1.15342,-0.17867 z" />
      <path
         id="path20674-36-0-4"
         style="fill:#adadff;fill-opacity:1;stroke-width:17.746"
         d="m 247.37799,-144.42022 c -0.20951,0.17361 -0.39781,0.36085 -0.55983,0.56171 -2.14126,2.4367 -3.57312,5.16821 -4.82342,7.9112 -2.37534,5.42933 -3.24555,11.14426 -3.58537,16.82433 -0.28072,4.76381 -0.19627,9.53956 0.21317,14.29784 0.62576,5.91335 2.4481,11.766572 5.49389,17.25478 1.03654,1.844122 2.18239,3.661561 3.54028,5.387231 0.82135,0.830402 2.68741,0.981859 3.63571,0.188335 1.11218,-0.769466 1.25443,-1.95584 1.63985,-2.984048 2.47035,-7.214502 2.86272,-14.690058 4.51797,-22.009028 0.82549,-3.55006 2.12552,-7.03117 3.69719,-10.43729 0.51016,-1.16595 1.00232,-2.33921 1.52888,-3.50304 a 50.237601,22.442298 89.059487 0 0 -6.61548,-24.17383 c -0.85183,-0.13435 -1.69432,-0.29952 -2.51968,-0.50963 -1.64118,-0.32988 -3.53968,-0.32837 -4.97013,0.43582 -0.43731,0.21415 -0.84411,0.46605 -1.19303,0.75561 z" />
      <path
         id="path20674-36-0-4-5"
         style="fill:#adadff;fill-opacity:1;stroke-width:17.746"
         d="m 325.4448,-144.42022 c 0.20951,0.17361 0.39781,0.36085 0.55983,0.56171 2.14126,2.4367 3.57312,5.16821 4.82342,7.9112 2.37534,5.42933 3.24555,11.14426 3.58537,16.82433 0.28072,4.76381 0.19627,9.53956 -0.21317,14.29784 -0.62576,5.913349 -2.4481,11.766571 -5.49389,17.254779 -1.03654,1.844122 -2.18239,3.661561 -3.54028,5.387231 -0.82135,0.830402 -2.68741,0.981859 -3.63571,0.188335 -1.11218,-0.769466 -1.25443,-1.95584 -1.63985,-2.984048 -2.47035,-7.214502 -2.86272,-14.690058 -4.51797,-22.009027 -0.82549,-3.55006 -2.12552,-7.03117 -3.69719,-10.43729 -0.51016,-1.16595 -1.00232,-2.33921 -1.52888,-3.50304 a 22.442298,50.237601 0.940513 0 1 6.61548,-24.17383 c 0.85183,-0.13435 1.69432,-0.29952 2.51968,-0.50963 1.64118,-0.32988 3.53968,-0.32837 4.97013,0.43582 0.43731,0.21415 0.84411,0.46605 1.19303,0.75561 z" />
    </g>
    <path
       id="rect55-6-2"
       style="fill:#654ef0;fill-opacity:1;stroke:none;stroke-width:11.2744;stroke-miterlimit:4;stroke-dasharray:none;stroke-opacity:1"
       d="m 32.893052,32.036137 c -1.671093,0 -3.016232,1.316009 -3.016232,2.950289 v 82.599054 c 0,1.63428 1.345139,2.94978 3.016232,2.94978 h 84.459618 c 1.67107,0 3.01673,-1.3155 3.01673,-2.94978 V 34.986426 c 0,-1.63428 -1.34566,-2.950289 -3.01673,-2.950289 H 85.058486 A 10.05471,9.8332139 0 0 1 82.4496,37.848304 10.05471,9.8332139 0 0 1 68.242939,38.44639 10.05471,9.8332139 0 0 1 65.024074,32.036137 Z" />
    <rect
       style="fill:#e1efe6;fill-opacity:0.639613;stroke:none;stroke-width:8.8308;stroke-miterlimit:4;stroke-dasharray:none;stroke-opacity:1"
       id="rect55-6-9-1"
       width="70.879547"
       height="69.318138"
       x="39.683262"
       y="43.18771"
       ry="3.9025567"
       rx="3.990463" />
    <path
       style="fill:#654ef0;fill-opacity:1;stroke:none"
       id="path18310-2-5"
       inkscape:flatsided="false"
       sodipodi:sides="6"
       sodipodi:cx="660"
       sodipodi:cy="-160"
       sodipodi:r1="32"
       sodipodi:r2="100"
       sodipodi:arg1="0.92729522"
       sodipodi:arg2="1.450894"
       inkscape:rounded="0.42"
       inkscape:randomized="0.089"
       transform="matrix(0,-0.47787345,-0.42620563,0,5.993314,392.7798)"
       inkscape:transform-center-x="-3.858154"
       inkscape:transform-center-y="0.22799556"
       sodipodi:type="star"
       d="m 678.09959,-132.94424 c -22.97618,19.81594 21.60964,69.690081 -9.31331,75.07911 -30.92295,5.389029 9.12695,-60.53686 -19.16697,-70.88339 -28.29392,-10.34654 -54.82796,47.318869 -76.04495,23.58799 -21.21699,-23.73088 67.46919,-17.10983 61.06837,-47.83632 -6.40081,-30.72648 -72.32299,-11.42763 -61.19656,-39.48544 11.12643,-28.05782 45.30861,30.01418 67.14435,9.82683 21.83574,-20.18735 -18.91899,-76.78012 12.92893,-81.47599 31.84792,-4.69587 -13.18476,68.83176 15.55135,77.28027 28.73611,8.44851 61.12459,-66.01846 76.06327,-39.85028 14.93867,26.16818 -67.50009,33.2992 -61.0867,64.0986 6.4134,30.79941 75.33638,4.32296 64.81219,33.08857 -10.5242,28.76561 -47.7838,-23.24589 -70.75997,-3.42995 z" />
  </g>
</svg>
