<?xml version="1.0" encoding="UTF-8" standalone="no"?>
<!-- Created with Inkscape (http://www.inkscape.org/) -->

<svg
   width="24mm"
   height="24mm"
   viewBox="0 0 24 24"
   version="1.1"
   id="svg65"
   inkscape:version="1.1.2 (0a00cf5339, 2022-02-04)"
   sodipodi:docname="linkedin-icon.svg"
   xmlns:inkscape="http://www.inkscape.org/namespaces/inkscape"
   xmlns:sodipodi="http://sodipodi.sourceforge.net/DTD/sodipodi-0.dtd"
   xmlns="http://www.w3.org/2000/svg"
   xmlns:svg="http://www.w3.org/2000/svg">
  <sodipodi:namedview
     id="namedview67"
     pagecolor="#505050"
     bordercolor="#e1efe6ff"
     borderopacity="1"
     inkscape:pageshadow="0"
     inkscape:pageopacity="0"
     inkscape:pagecheckerboard="0"
     inkscape:document-units="mm"
     showgrid="false"
     inkscape:zoom="0.56123737"
     inkscape:cx="396.44544"
     inkscape:cy="560.36895"
     inkscape:window-width="1886"
     inkscape:window-height="1025"
     inkscape:window-x="34"
     inkscape:window-y="0"
     inkscape:window-maximized="1"
     inkscape:current-layer="layer1" />
  <defs
     id="defs62" />
  <g
     inkscape:label="Layer 1"
     inkscape:groupmode="layer"
     id="layer1">
    <g
       id="g13"
       transform="matrix(0.3167593,0,0,0.3147624,-131.27622,-124.56587)">
      <path
         d="m 414.43526,401.20764 c 0,-3.01573 2.50672,-5.46193 5.59907,-5.46193 h 64.56918 c 3.09224,0 5.59906,2.4462 5.59906,5.46193 v 65.32413 c 0,3.01674 -2.50682,5.46193 -5.59906,5.46193 h -64.56918 c -3.09235,0 -5.59907,-2.44519 -5.59907,-5.46193 z"
         style="fill:#e1efe688;fill-opacity:1;fill-rule:nonzero;stroke:none;stroke-width:1.01883"
         id="path14"
         inkscape:connector-curvature="0" />
      <path
         d="M 437.40268,459.57318 V 425.14294 H 425.9587 v 34.43024 z m -5.72204,-39.13111 c 3.99075,0 6.47465,-2.64385 6.47465,-5.94791 -0.0744,-3.37843 -2.4839,-5.94893 -6.39895,-5.94893 -3.91464,0 -6.47414,2.5705 -6.47414,5.94893 0,3.30406 2.48339,5.94791 6.32386,5.94791 h 0.0744 z"
         style="fill:#000a14ff;fill-opacity:1;fill-rule:evenodd;stroke:none;stroke-width:1.01883"
         id="path28"
         inkscape:connector-curvature="0" />
      <path
         d="m 443.73499,459.57318 h 11.44388 v -19.2273 c 0,-1.02902 0.0744,-2.05702 0.37656,-2.79261 0.82728,-2.05599 2.71028,-4.18534 5.8717,-4.18534 4.14102,0 5.79753,3.15735 5.79753,7.78588 v 18.41937 h 11.44296 v -19.74181 c 0,-10.57543 -5.64583,-15.49636 -13.17507,-15.49636 -6.17368,0 -8.88396,3.45077 -10.38979,5.8012 h 0.0764 v -4.99327 H 443.7353 c 0.15018,3.2307 0,34.43024 0,34.43024 z"
         style="fill:#000a14ff;fill-opacity:1;fill-rule:evenodd;stroke:none;stroke-width:1.01883"
         id="path30"
         inkscape:connector-curvature="0" />
    </g>
  </g>
</svg>
