<?xml version="1.0" encoding="UTF-8" standalone="no"?>
<!-- Created with Inkscape (http://www.inkscape.org/) -->

<svg
   width="300mm"
   height="130mm"
   viewBox="0 0 299.99997 130"
   version="1.1"
   id="svg5"
   inkscape:version="1.1.2 (0a00cf5339, 2022-02-04)"
   sodipodi:docname="logo.svg"
   xmlns:inkscape="http://www.inkscape.org/namespaces/inkscape"
   xmlns:sodipodi="http://sodipodi.sourceforge.net/DTD/sodipodi-0.dtd"
   xmlns="http://www.w3.org/2000/svg"
   xmlns:svg="http://www.w3.org/2000/svg">
  <sodipodi:namedview
     id="namedview7"
     pagecolor="#161616"
     bordercolor="#eeeeee"
     borderopacity="1"
     inkscape:pageshadow="0"
     inkscape:pageopacity="0"
     inkscape:pagecheckerboard="0"
     inkscape:document-units="mm"
     showgrid="true"
     units="mm"
     width="256px"
     inkscape:zoom="0.70710678"
     inkscape:cx="576.29203"
     inkscape:cy="262.33662"
     inkscape:window-width="1886"
     inkscape:window-height="1025"
     inkscape:window-x="34"
     inkscape:window-y="0"
     inkscape:window-maximized="1"
     inkscape:current-layer="layer1" />
  <defs
     id="defs2">
    <rect
       x="53.225235"
       y="512.16541"
       width="711.71014"
       height="446.3363"
       id="rect50645" />
    <rect
       x="346.25385"
       y="385.4328"
       width="242.7775"
       height="201.16441"
       id="rect30843" />
    <rect
       x="96.856628"
       y="146.12955"
       width="721.29968"
       height="671.97717"
       id="rect3577" />
    <linearGradient
       id="linearGradient39043"
       inkscape:swatch="gradient">
      <stop
         style="stop-color:#2e12d8;stop-opacity:1;"
         offset="0"
         id="stop39039" />
      <stop
         style="stop-color:#2e12d8;stop-opacity:0;"
         offset="1"
         id="stop39041" />
    </linearGradient>
    <linearGradient
       id="linearGradient30520"
       inkscape:swatch="gradient">
      <stop
         style="stop-color:#3da5d9;stop-opacity:1;"
         offset="0"
         id="stop30516" />
      <stop
         style="stop-color:#3da5d9;stop-opacity:0;"
         offset="1"
         id="stop30518" />
    </linearGradient>
    <linearGradient
       id="98CE00"
       inkscape:swatch="solid">
      <stop
         style="stop-color:#00ff00;stop-opacity:1;"
         offset="0"
         id="stop22410" />
    </linearGradient>
  </defs>
  <g
     inkscape:label="Layer 1"
     inkscape:groupmode="layer"
     id="layer1">
    <g
       id="g64834"
       transform="translate(0.52916667)">
      <g
         id="g26695"
         style="fill:#adadff;fill-opacity:1"
         transform="translate(162.60548,-0.60647423)">
        <ellipse
           style="fill:#adadff;fill-opacity:1;stroke:none;stroke-width:37.7953;stroke-miterlimit:4;stroke-dasharray:none;stroke-opacity:1"
           id="path21717"
           cx="67.758743"
           cy="26.458334"
           rx="15.874863"
           ry="23.735193" />
        <path
           id="path21330"
           style="fill:#adadff;fill-opacity:1;stroke:none;stroke-width:11.7303;stroke-miterlimit:4;stroke-dasharray:none;stroke-opacity:1"
           inkscape:transform-center-x="-7.4710055"
           inkscape:transform-center-y="-1.5341206"
           d="m 74.272063,102.66402 a 23.102837,43.818519 88.316439 0 0 -16.063727,-2.12235 c 1.137145,0.77444 1.889241,1.37259 2.019633,1.69101 0.968815,2.36592 -15.737363,26.24664 -11.25373,26.87761 4.483631,0.63097 17.732336,-23.73619 21.247166,-25.47114 0.506306,-0.24992 1.997911,-0.58666 4.050658,-0.97513 z" />
        <ellipse
           style="fill:#adadff;fill-opacity:1;stroke:none;stroke-width:13.3495;stroke-miterlimit:4;stroke-dasharray:none;stroke-opacity:1"
           id="path20674"
           cx="41.77005"
           cy="1.570616"
           rx="28.920889"
           ry="10.352674"
           transform="matrix(0.64201983,0.76668803,0.41786457,-0.90850933,0,0)" />
        <ellipse
           style="fill:#adadff;fill-opacity:1;stroke:none;stroke-width:13.3495;stroke-miterlimit:4;stroke-dasharray:none;stroke-opacity:1"
           id="path20674-5"
           cx="29.622478"
           cy="110.31447"
           rx="28.920889"
           ry="10.352674"
           transform="matrix(0.90291301,-0.42982333,0.0017242,0.99999851,0,0)" />
        <ellipse
           style="fill:#adadff;fill-opacity:1;stroke:none;stroke-width:13.3495;stroke-miterlimit:4;stroke-dasharray:none;stroke-opacity:1"
           id="path20674-3"
           cx="-116.74968"
           cy="-88.642159"
           rx="28.920889"
           ry="10.352674"
           transform="matrix(-0.90291301,0.42982333,-0.0017242,-0.99999851,0,0)" />
        <ellipse
           style="fill:#adadff;fill-opacity:1;stroke:none;stroke-width:13.3495;stroke-miterlimit:4;stroke-dasharray:none;stroke-opacity:1"
           id="path20674-3-5"
           cx="-141.56624"
           cy="7.8037109"
           rx="28.920889"
           ry="10.352674"
           transform="matrix(-0.73188745,-0.68142554,-0.30232965,0.95320343,0,0)"
           inkscape:transform-center-x="-3.7001781"
           inkscape:transform-center-y="3.9349697" />
      </g>
      <g
         id="g38356"
         style="fill:#8475ff;fill-opacity:0.646053"
         transform="translate(121.71556,-83.085253)">
        <path
           id="path21717-7"
           style="fill:#8475ff;fill-opacity:0.646053;stroke:none;stroke-width:142.848;stroke-miterlimit:4;stroke-dasharray:none;stroke-opacity:1"
           d="m 355.08203,378.49023 a 59.999481,89.707817 0 0 0 -4.42969,33.74415 59.999481,89.707817 0 0 0 59.99805,89.70703 59.999481,89.707817 0 0 0 60,-89.70703 59.999481,89.707817 0 0 0 -3.26367,-29.17579 86.923886,88.622103 0 0 1 -53.51758,18.84766 86.923886,88.622103 0 0 1 -58.78711,-23.41602 z"
           transform="scale(0.26458333)" />
        <path
           id="path21330-0"
           style="fill:#8475ff;fill-opacity:0.646053;stroke:none;stroke-width:44.335;stroke-miterlimit:4;stroke-dasharray:none;stroke-opacity:1"
           inkscape:transform-center-x="-7.4710055"
           inkscape:transform-center-y="-1.5341206"
           d="m 374.55469,692.23438 c 4.29786,2.92701 7.14195,5.18714 7.63476,6.39062 2.62365,6.40711 -29.04188,54.55443 -40.97656,82.21875 a 78.035153,65.401424 0 0 1 28.20899,-8.88281 c 19.87363,-26.93185 42.29141,-63.94939 50.5371,-68.01953 1.91358,-0.94458 7.55213,-2.21732 15.31055,-3.68555 a 87.317809,165.6133 88.316439 0 0 -60.71484,-8.02148 z"
           transform="scale(0.26458333)" />
        <path
           id="path20674-9"
           style="fill:#8475ff;fill-opacity:0.646053;stroke:none;stroke-width:47.9627;stroke-miterlimit:4;stroke-dasharray:none;stroke-opacity:1"
           d="m 186.97266,361.91602 a 110.72839,34.90453 53.137676 0 0 55.06836,101.51171 110.72839,34.90453 53.137676 0 0 86.52929,48.25586 110.72839,34.90453 53.137676 0 0 -45.38672,-108.83984 87.562073,86.800232 0 0 1 -20.41015,2.42187 87.562073,86.800232 0 0 1 -75.80078,-43.3496 z"
           transform="scale(0.26458333)" />
        <path
           id="path20674-5-3"
           style="fill:#8475ff;fill-opacity:0.646053;stroke:none;stroke-width:47.9627;stroke-miterlimit:4;stroke-dasharray:none;stroke-opacity:1"
           d="m 332.87891,619.9082 a 34.90453,110.72839 61.463376 0 0 -76.58203,22.01172 34.90453,110.72839 61.463376 0 0 -27.76758,14.81055 91.662778,87.718383 0 0 1 -68.52149,78.57812 34.90453,110.72839 61.463376 0 0 96.42383,-15.13281 34.90453,110.72839 61.463376 0 0 98.62695,-86.11133 34.90453,110.72839 61.463376 0 0 -22.17968,-14.15625 z"
           transform="scale(0.26458333)" />
        <path
           id="path20674-3-6"
           style="fill:#8475ff;fill-opacity:0.646053;stroke:none;stroke-width:47.9627;stroke-miterlimit:4;stroke-dasharray:none;stroke-opacity:1"
           d="m 529.2168,431.24609 a 34.90453,110.72839 61.463376 0 0 -74.36133,73.33203 34.90453,110.72839 61.463376 0 0 98.76367,-7.85351 34.90453,110.72839 61.463376 0 0 86.95508,-62.06055 93.613883,128.13425 75.351503 0 1 -111.35742,-3.41797 z"
           transform="scale(0.26458333)" />
        <path
           id="path20674-3-5-0"
           style="fill:#8475ff;fill-opacity:0.646053;stroke:none;stroke-width:47.9627;stroke-miterlimit:4;stroke-dasharray:none;stroke-opacity:1"
           inkscape:transform-center-x="-3.7001781"
           inkscape:transform-center-y="3.9349697"
           d="m 470.71875,621.64844 a 110.72839,34.90453 46.035415 0 0 -13.48242,8.81445 110.72839,34.90453 46.035415 0 0 68.17187,111.78125 110.72839,34.90453 46.035415 0 0 91.83008,37.1875 110.72839,34.90453 46.035415 0 0 0.48633,-2.09961 89.112429,74.511721 0 0 1 -53.54492,-68.28125 89.112429,74.511721 0 0 1 4.04492,-22.08398 110.72839,34.90453 46.035415 0 0 -19.1582,-19.31641 110.72839,34.90453 46.035415 0 0 -78.34766,-46.00195 z"
           transform="scale(0.26458333)" />
      </g>
      <path
         id="rect55-6"
         style="fill:#654ef0;fill-opacity:1;stroke:none;stroke-width:11.3386;stroke-miterlimit:4;stroke-dasharray:none;stroke-opacity:1"
         d="m 188.36401,22.529501 c -1.662,0 -2.99982,1.338334 -2.99982,3.000333 v 84.000056 c 0,1.662 1.33782,2.99981 2.99982,2.99981 h 84.00005 c 1.66198,0 3.00032,-1.33781 3.00032,-2.99981 V 25.529834 c 0,-1.661999 -1.33834,-3.000333 -3.00032,-3.000333 H 240.2456 a 10,10 0 0 1 -2.59469,5.910749 10,10 0 0 1 -14.12936,0.608233 10,10 0 0 1 -3.20135,-6.518982 z" />
      <rect
         style="fill:#e1efe6;fill-opacity:0.639613;stroke:none;stroke-width:8.88112;stroke-miterlimit:4;stroke-dasharray:none;stroke-opacity:1"
         id="rect55-6-9"
         width="70.493874"
         height="70.493881"
         x="195.11725"
         y="33.870232"
         ry="3.96875"
         rx="3.96875" />
      <path
         style="fill:#654ef0;fill-opacity:1;stroke:none"
         id="path18310-2"
         inkscape:flatsided="false"
         sodipodi:sides="6"
         sodipodi:cx="660"
         sodipodi:cy="-160"
         sodipodi:r1="32"
         sodipodi:r2="100"
         sodipodi:arg1="0.92729522"
         sodipodi:arg2="1.450894"
         inkscape:rounded="0.42"
         inkscape:randomized="0.089"
         transform="matrix(0,-0.4859789,-0.42388655,0,161.61064,389.39192)"
         inkscape:transform-center-x="-3.858154"
         inkscape:transform-center-y="0.22799556"
         sodipodi:type="star"
         d="m 678.09959,-132.94424 c -22.97618,19.81594 21.60964,69.690081 -9.31331,75.07911 -30.92295,5.389029 9.12695,-60.53686 -19.16697,-70.88339 -28.29392,-10.34654 -54.82796,47.318869 -76.04495,23.58799 -21.21699,-23.73088 67.46919,-17.10983 61.06837,-47.83632 -6.40081,-30.72648 -72.32299,-11.42763 -61.19656,-39.48544 11.12643,-28.05782 45.30861,30.01418 67.14435,9.82683 21.83574,-20.18735 -18.91899,-76.78012 12.92893,-81.47599 31.84792,-4.69587 -13.18476,68.83176 15.55135,77.28027 28.73611,8.44851 61.12459,-66.01846 76.06327,-39.85028 14.93867,26.16818 -67.50009,33.2992 -61.0867,64.0986 6.4134,30.79941 75.33638,4.32296 64.81219,33.08857 -10.5242,28.76561 -47.7838,-23.24589 -70.75997,-3.42995 z" />
      <path
         id="rect55-6-1"
         style="fill:#3013e0;fill-opacity:0.280602;stroke:none;stroke-width:11.3386;stroke-miterlimit:4;stroke-dasharray:none;stroke-opacity:1"
         d="m 186.567,23.05883 c -0.73008,0.546208 -1.20304,1.415447 -1.20304,2.401403 V 109.4603 c 0,1.662 1.33783,2.99982 2.99982,2.99982 h 84.00004 c 0.32683,0 0.64024,-0.0536 0.93431,-0.14934 A 81.068346,62.332459 41.271635 0 1 222.80819,91.519265 81.068346,62.332459 41.271635 0 1 186.567,23.05883 Z" />
    </g>
    <g
       aria-label="ROS2"
       transform="matrix(0.59513659,0,0,0.67990556,-37.034813,-101.39715)"
       id="text3575"
       style="font-size:79.8603px;line-height:1.25;white-space:pre;shape-inside:url(#rect3577);fill:#e1efe6">
      <path
         d="m 119.77733,199.52883 h -3.03469 v 19.80535 h -16.45123 v -55.58277 h 20.36438 q 12.05891,0 17.96857,4.31246 5.90966,4.23259 5.90966,13.33667 0,5.19092 -2.31595,8.62491 -2.31595,3.43399 -7.50687,6.46868 l 13.57625,22.84005 h -18.20814 z m -3.03469,-11.02073 h 4.31245 q 3.35413,0 5.0312,-1.75692 1.67707,-1.75693 1.67707,-5.35064 0,-6.38883 -7.50687,-6.38883 h -3.51385 z"
         style="font-weight:900;font-family:'Fira Sans';-inkscape-font-specification:'Fira Sans, Heavy'"
         id="path65240" />
      <path
         d="m 173.04393,162.15421 q 12.45821,0 19.16647,7.74645 6.78813,7.66658 6.78813,21.56228 0,9.02421 -3.03469,15.65261 -3.03469,6.62841 -8.86449,10.22212 -5.82981,3.59372 -14.05542,3.59372 -12.4582,0 -19.24633,-7.74645 -6.70826,-7.82631 -6.70826,-21.722 0,-9.02422 3.03469,-15.57276 3.03469,-6.62841 8.86449,-10.14226 5.8298,-3.59371 14.05541,-3.59371 z m 0,11.6596 q -4.71175,0 -6.78812,4.07287 -2.07637,3.99302 -2.07637,13.57626 0,9.58323 2.07637,13.73597 2.07637,4.07287 6.78812,4.07287 4.79162,0 6.78813,-4.07287 2.07637,-4.07288 2.07637,-13.73597 0,-9.58324 -2.07637,-13.57626 -2.07637,-4.07287 -6.78813,-4.07287 z"
         style="font-weight:900;font-family:'Fira Sans';-inkscape-font-specification:'Fira Sans, Heavy'"
         id="path65242" />
      <path
         d="m 224.47386,162.15421 q 12.69778,0 20.52409,7.58672 l -7.26728,8.54506 q -5.59023,-4.47218 -11.89919,-4.47218 -2.95483,0 -4.47218,1.03818 -1.51734,1.03819 -1.51734,2.95483 0,1.43749 0.7986,2.39581 0.87846,0.87847 2.79511,1.67707 1.99651,0.7986 6.38883,2.23609 8.78463,2.79511 12.61792,7.0277 3.91316,4.2326 3.91316,11.57975 0,5.35064 -2.87497,9.50337 -2.79511,4.07288 -8.06589,6.38883 -5.27078,2.31595 -12.45821,2.31595 -7.34715,0 -12.93737,-2.31595 -5.59022,-2.31595 -9.42351,-6.06939 l 8.06589,-8.86449 q 6.30896,5.4305 13.65611,5.4305 3.43399,0 5.19092,-1.35762 1.75692,-1.43749 1.75692,-3.67358 0,-1.67706 -0.7986,-2.79511 -0.71874,-1.11804 -2.63539,-2.07637 -1.91665,-0.95832 -5.59022,-2.07636 -9.6631,-3.03469 -13.49639,-7.26729 -3.83329,-4.31246 -3.83329,-10.70128 0,-5.19092 2.79511,-9.02421 2.79511,-3.8333 7.66658,-5.90967 4.95134,-2.07636 11.10059,-2.07636 z"
         style="font-weight:900;font-family:'Fira Sans';-inkscape-font-specification:'Fira Sans, Heavy'"
         id="path65244" />
      <path
         d="m 266.24072,163.75141 q 6.46868,0 11.02072,2.15623 4.55204,2.15623 6.78813,5.8298 2.31594,3.59372 2.31594,7.90617 0,4.07288 -1.51734,7.58673 -1.43749,3.51385 -5.74994,8.30547 -4.2326,4.79162 -12.61793,11.97905 h 21.00326 l -1.59721,11.81932 h -37.29476 v -10.861 q 9.2638,-8.78463 13.65611,-13.49639 4.47218,-4.71176 6.22911,-7.74645 1.75692,-3.03469 1.75692,-5.8298 0,-2.71525 -1.51734,-4.2326 -1.51735,-1.5972 -4.2326,-1.5972 -2.63539,0 -4.79162,1.35762 -2.07636,1.27777 -4.31245,4.07288 l -9.02421,-7.18743 q 3.43399,-4.6319 8.46519,-7.34715 5.0312,-2.71525 11.42002,-2.71525 z"
         style="font-weight:900;font-family:'Fira Sans';-inkscape-font-specification:'Fira Sans, Heavy'"
         id="path65246" />
    </g>
    <g
       aria-label="+"
       transform="matrix(2.8654533,0,0,2.8913432,-927.727,-1076.7337)"
       id="text30841"
       style="font-weight:500;font-size:17.6489px;line-height:1.25;font-family:'Fira Sans';-inkscape-font-specification:'Fira Sans Medium';white-space:pre;shape-inside:url(#rect30843);fill:#e1efe6">
      <path
         d="m 351.77801,391.94898 v 2.70028 h 2.62969 v 1.78254 h -2.62969 v 2.70028 h -1.94138 v -2.70028 h -2.61203 v -1.78254 h 2.61203 v -2.70028 z"
         id="path65219" />
    </g>
    <g
       aria-label="WASM"
       transform="matrix(0.26458333,0,0,0.26458333,-7.203173,-61.338778)"
       id="text50643"
       style="font-weight:900;font-size:192px;line-height:1.25;font-family:'Fira Sans';-inkscape-font-specification:'Fira Sans Heavy';white-space:pre;shape-inside:url(#rect50645);fill:#e1efe6">
      <path
         d="m 218.15261,552.13402 -19.392,133.632 h -51.456 l -11.904,-96 -13.248,96 H 71.848609 l -18.624,-133.632 h 39.552 l 8.448001,105.024 14.208,-105.024 h 41.28 l 11.904,105.024 11.52,-105.024 z"
         id="path65192" />
      <path
         d="m 296.48847,685.76602 -5.184,-25.92 h -31.68 l -4.992,25.92 h -41.28 l 38.976,-133.632 h 47.232 l 38.784,133.632 z m -31.296,-53.568 h 20.544 l -10.368,-52.416 z"
         id="path65194" />
      <path
         d="m 390.95243,548.29402 q 30.528,0 49.344,18.24 l -17.472,20.544 q -13.44,-10.752 -28.608,-10.752 -7.104,0 -10.752,2.496 -3.648,2.496 -3.648,7.104 0,3.456 1.92,5.76 2.112,2.112 6.72,4.032 4.8,1.92 15.36,5.376 21.12,6.72 30.336,16.896 9.408,10.176 9.408,27.84 0,12.864 -6.912,22.848 -6.72,9.792 -19.392,15.36 -12.672,5.568 -29.952,5.568 -17.664,0 -31.104,-5.568 -13.44,-5.568 -22.656,-14.592 l 19.392,-21.312 q 15.168,13.056 32.832,13.056 8.256,0 12.48,-3.264 4.224,-3.456 4.224,-8.832 0,-4.032 -1.92,-6.72 -1.728,-2.688 -6.336,-4.992 -4.608,-2.304 -13.44,-4.992 -23.232,-7.296 -32.448,-17.472 -9.216,-10.368 -9.216,-25.728 0,-12.48 6.72,-21.696 6.72,-9.216 18.432,-14.208 11.904,-4.992 26.688,-4.992 z"
         id="path65196" />
      <path
         d="m 593.51226,685.76602 h -38.976 l -0.96,-47.424 q -0.192,-5.568 -0.192,-16.704 0,-19.584 1.536,-37.824 l -15.744,88.512 h -37.44 l -16.896,-88.512 q 2.496,26.688 2.496,45.696 v 8.64 l -0.96,47.616 h -38.976 l 9.6,-133.632 h 48.768 l 15.36,86.592 13.824,-86.592 h 48.96 z"
         id="path65198" />
    </g>
  </g>
</svg>
