<?xml version="1.0" encoding="UTF-8" standalone="no"?>
<!-- Created with Inkscape (http://www.inkscape.org/) -->

<svg
   width="262mm"
   height="117mm"
   viewBox="0 0 261.99998 117"
   version="1.1"
   id="svg5"
   inkscape:version="1.1.2 (0a00cf5339, 2022-02-04)"
   sodipodi:docname="logo_rotated.svg"
   xmlns:inkscape="http://www.inkscape.org/namespaces/inkscape"
   xmlns:sodipodi="http://sodipodi.sourceforge.net/DTD/sodipodi-0.dtd"
   xmlns="http://www.w3.org/2000/svg"
   xmlns:svg="http://www.w3.org/2000/svg">
  <sodipodi:namedview
     id="namedview7"
     pagecolor="#161616"
     bordercolor="#eeeeee"
     borderopacity="1"
     inkscape:pageshadow="0"
     inkscape:pageopacity="0"
     inkscape:pagecheckerboard="0"
     inkscape:document-units="mm"
     showgrid="true"
     units="mm"
     width="256px"
     inkscape:zoom="0.5"
     inkscape:cx="945"
     inkscape:cy="231"
     inkscape:window-width="1886"
     inkscape:window-height="1025"
     inkscape:window-x="34"
     inkscape:window-y="0"
     inkscape:window-maximized="1"
     inkscape:current-layer="layer1">
    <inkscape:grid
       type="xygrid"
       id="grid73874"
       visible="false" />
  </sodipodi:namedview>
  <defs
     id="defs2">
    <rect
       x="53.225235"
       y="512.16541"
       width="711.71014"
       height="446.3363"
       id="rect50645" />
    <rect
       x="346.25385"
       y="385.4328"
       width="242.7775"
       height="201.16441"
       id="rect30843" />
    <rect
       x="96.856628"
       y="146.12955"
       width="721.29968"
       height="671.97717"
       id="rect3577" />
    <linearGradient
       id="linearGradient39043"
       inkscape:swatch="gradient">
      <stop
         style="stop-color:#2e12d8;stop-opacity:1;"
         offset="0"
         id="stop39039" />
      <stop
         style="stop-color:#2e12d8;stop-opacity:0;"
         offset="1"
         id="stop39041" />
    </linearGradient>
    <linearGradient
       id="linearGradient30520"
       inkscape:swatch="gradient">
      <stop
         style="stop-color:#3da5d9;stop-opacity:1;"
         offset="0"
         id="stop30516" />
      <stop
         style="stop-color:#3da5d9;stop-opacity:0;"
         offset="1"
         id="stop30518" />
    </linearGradient>
    <linearGradient
       id="98CE00"
       inkscape:swatch="solid">
      <stop
         style="stop-color:#00ff00;stop-opacity:1;"
         offset="0"
         id="stop22410" />
    </linearGradient>
  </defs>
  <g
     inkscape:label="Layer 1"
     inkscape:groupmode="layer"
     id="layer1">
    <g
       id="g75324"
       transform="matrix(0.67881096,-0.33576906,0.33576906,0.67881096,66.748296,255.614)">
      <g
         id="g73882">
        <ellipse
           style="fill:#adadff;fill-opacity:1;stroke:none;stroke-width:37.7953;stroke-miterlimit:4;stroke-dasharray:none;stroke-opacity:1"
           id="path21717-2-2"
           cx="285.61734"
           cy="-210.28239"
           rx="15.874863"
           ry="23.735193" />
        <path
           id="path21330-7-0"
           style="fill:#adadff;fill-opacity:1;stroke:none;stroke-width:9.1537;stroke-miterlimit:4;stroke-dasharray:none;stroke-opacity:1"
           inkscape:transform-center-x="-4.4642546"
           inkscape:transform-center-y="-1.6099138"
           d="m 293.97138,-122.04078 a 22.399208,27.521076 62.822608 0 0 -9.86033,-0.58968 c 0.73405,0.66313 1.22451,1.18727 1.32194,1.49189 0.72389,2.2634 -8.02453,27.620569 -5.27014,27.823574 2.7544,0.203005 9.37882,-25.310584 11.40933,-27.370984 0.29249,-0.2968 1.17726,-0.77345 2.3992,-1.3548 z" />
        <path
           id="path20674-36-0"
           style="fill:#adadff;fill-opacity:1;stroke-width:16.6541"
           d="m 257.37076,-199.99989 c -0.23294,0.001 -0.46546,0.027 -0.69503,0.081 -2.87239,0.53938 -5.61139,1.77731 -8.26876,3.14309 -5.21048,2.76837 -9.88561,6.74826 -14.27148,11.0472 -3.67625,3.60829 -7.18001,7.46484 -10.50943,11.51998 -4.07957,5.11599 -7.52034,10.9666 -10.08259,17.32665 -0.85444,2.14565 -1.6348,4.34153 -2.24173,6.60302 -0.20867,1.19803 0.6055,2.53879 1.66554,2.52725 1.12356,0.11477 2.07501,-0.73653 3.02978,-1.30293 6.58305,-4.12718 12.32806,-9.82094 18.58388,-14.56423 3.04561,-2.28594 6.27568,-4.2067 9.58495,-5.89016 1.11898,-0.59448 2.23445,-1.20653 3.36,-1.7886 a 18.092415,54.883336 41.168691 0 0 14.66267,-23.5674 c -0.32324,-0.66394 -0.61897,-1.34631 -0.87281,-2.05323 -0.57005,-1.33574 -1.51389,-2.57595 -2.79157,-2.90302 -0.37615,-0.1155 -0.76517,-0.18099 -1.15342,-0.17867 z" />
        <path
           id="path20674-36-0-8"
           style="fill:#adadff;fill-opacity:1;stroke-width:16.6541"
           d="m 314.30699,-199.99989 c 0.23294,0.001 0.46546,0.027 0.69503,0.081 2.87239,0.53938 5.61139,1.77731 8.26876,3.14309 5.21048,2.76837 9.88561,6.74826 14.27148,11.0472 3.67625,3.60829 7.18001,7.46484 10.50943,11.51998 4.07957,5.11599 7.52034,10.9666 10.08259,17.32665 0.85444,2.14565 1.6348,4.34153 2.24173,6.60302 0.20867,1.19803 -0.6055,2.53879 -1.66554,2.52725 -1.12356,0.11477 -2.07501,-0.73653 -3.02978,-1.30293 -6.58305,-4.12718 -12.32806,-9.82094 -18.58388,-14.56423 -3.04561,-2.28594 -6.27568,-4.2067 -9.58495,-5.89016 -1.11898,-0.59448 -2.23445,-1.20653 -3.36,-1.7886 a 54.883336,18.092415 48.831309 0 1 -14.66267,-23.5674 c 0.32324,-0.66394 0.61897,-1.34631 0.87281,-2.05323 0.57005,-1.33574 1.51389,-2.57595 2.79157,-2.90302 0.37615,-0.1155 0.76517,-0.18099 1.15342,-0.17867 z" />
        <path
           id="path20674-36-0-4"
           style="fill:#adadff;fill-opacity:1;stroke-width:17.746"
           d="m 247.37799,-144.42022 c -0.20951,0.17361 -0.39781,0.36085 -0.55983,0.56171 -2.14126,2.4367 -3.57312,5.16821 -4.82342,7.9112 -2.37534,5.42933 -3.24555,11.14426 -3.58537,16.82433 -0.28072,4.76381 -0.19627,9.53956 0.21317,14.29784 0.62576,5.91335 2.4481,11.766572 5.49389,17.25478 1.03654,1.844122 2.18239,3.661561 3.54028,5.387231 0.82135,0.830402 2.68741,0.981859 3.63571,0.188335 1.11218,-0.769466 1.25443,-1.95584 1.63985,-2.984048 2.47035,-7.214502 2.86272,-14.690058 4.51797,-22.009028 0.82549,-3.55006 2.12552,-7.03117 3.69719,-10.43729 0.51016,-1.16595 1.00232,-2.33921 1.52888,-3.50304 a 50.237601,22.442298 89.059487 0 0 -6.61548,-24.17383 c -0.85183,-0.13435 -1.69432,-0.29952 -2.51968,-0.50963 -1.64118,-0.32988 -3.53968,-0.32837 -4.97013,0.43582 -0.43731,0.21415 -0.84411,0.46605 -1.19303,0.75561 z" />
        <path
           id="path20674-36-0-4-5"
           style="fill:#adadff;fill-opacity:1;stroke-width:17.746"
           d="m 325.4448,-144.42022 c 0.20951,0.17361 0.39781,0.36085 0.55983,0.56171 2.14126,2.4367 3.57312,5.16821 4.82342,7.9112 2.37534,5.42933 3.24555,11.14426 3.58537,16.82433 0.28072,4.76381 0.19627,9.53956 -0.21317,14.29784 -0.62576,5.913349 -2.4481,11.766571 -5.49389,17.254779 -1.03654,1.844122 -2.18239,3.661561 -3.54028,5.387231 -0.82135,0.830402 -2.68741,0.981859 -3.63571,0.188335 -1.11218,-0.769466 -1.25443,-1.95584 -1.63985,-2.984048 -2.47035,-7.214502 -2.86272,-14.690058 -4.51797,-22.009027 -0.82549,-3.55006 -2.12552,-7.03117 -3.69719,-10.43729 -0.51016,-1.16595 -1.00232,-2.33921 -1.52888,-3.50304 a 22.442298,50.237601 0.940513 0 1 6.61548,-24.17383 c 0.85183,-0.13435 1.69432,-0.29952 2.51968,-0.50963 1.64118,-0.32988 3.53968,-0.32837 4.97013,0.43582 0.43731,0.21415 0.84411,0.46605 1.19303,0.75561 z" />
      </g>
      <g
         id="g74593"
         style="fill:#2c3fff;fill-opacity:0.260808"
         transform="translate(183.10242,-9.9091619)">
        <path
           id="path21717-2-2-0"
           style="fill:#2c3fff;fill-opacity:0.260808;stroke:none;stroke-width:142.848;stroke-miterlimit:4;stroke-dasharray:none;stroke-opacity:1"
           d="m 348.30664,-825.82617 a 59.999481,89.707817 0 0 0 -21.01562,68.10937 59.999481,89.707817 0 0 0 60,89.70703 59.999481,89.707817 0 0 0 59.9121,-86.16211 90,90 0 0 1 -10.66796,0.67383 90,90 0 0 1 -88.22852,-72.32812 z"
           transform="scale(0.26458333)" />
        <path
           id="path21330-7-0-6"
           style="fill:#2c3fff;fill-opacity:0.260808;stroke:none;stroke-width:34.5967;stroke-miterlimit:4;stroke-dasharray:none;stroke-opacity:1"
           inkscape:transform-center-x="-4.4642546"
           inkscape:transform-center-y="-1.6099138"
           d="m 395.94531,-427.13281 a 84.658424,104.01667 62.822608 0 0 -14.34765,0.69922 c 2.77436,2.50631 4.62785,4.48735 4.99609,5.63867 1.46798,4.58997 -7.36586,34.30247 -14.26563,60.98047 a 30,60 0 0 1 12.68946,7.8789 c 9.93607,-27.96873 20.30809,-62.60943 24.78125,-67.14843 1.10547,-1.12177 4.44805,-2.92387 9.0664,-5.1211 a 84.658424,104.01667 62.822608 0 0 -22.91992,-2.92773 z"
           transform="scale(0.26458333)" />
        <path
           id="path20674-36-0-0"
           style="fill:#2c3fff;fill-opacity:0.260808;stroke-width:62.9446"
           d="m 280.5332,-718.85352 c -0.8804,0.004 -1.75928,0.10255 -2.62695,0.30664 -0.16066,0.0302 -0.32003,0.0663 -0.48047,0.0977 a 38.042803,164.85213 42.818656 0 1 -60.58789,76.10352 38.042803,164.85213 42.818656 0 1 -102.23633,87.19531 c -3.11526,7.87609 -5.96278,15.9292 -8.1875,24.21875 -0.78867,4.52799 2.28847,9.5944 6.29492,9.55078 4.24653,0.43378 7.8426,-2.7831 11.45118,-4.92383 24.88082,-15.59879 46.59423,-37.11752 70.23828,-55.04492 11.51096,-8.63977 23.71908,-15.90099 36.22656,-22.26367 4.22922,-2.24685 8.44517,-4.55982 12.69922,-6.75977 a 68.380781,207.43308 41.168691 0 0 55.41797,-89.07226 c -1.2217,-2.50938 -2.33944,-5.0899 -3.29883,-7.76172 -2.15452,-5.04847 -5.72176,-9.73453 -10.55078,-10.9707 -1.42167,-0.43654 -2.89198,-0.68455 -4.35938,-0.67579 z"
           transform="scale(0.26458333)" />
        <path
           id="path20674-36-0-8-8"
           style="fill:#2c3fff;fill-opacity:0.260808;stroke-width:62.9446"
           d="m 495.72461,-718.85352 c -1.4674,-0.009 -2.93771,0.23925 -4.35938,0.67579 -4.82902,1.23617 -8.39626,5.92223 -10.55078,10.9707 -0.95939,2.67182 -2.07713,5.25234 -3.29883,7.76172 a 207.43308,68.380781 48.831309 0 0 55.41797,89.07226 c 4.25405,2.19995 8.47001,4.51292 12.69922,6.75977 12.50748,6.36268 24.7156,13.6239 36.22657,22.26367 23.64404,17.9274 45.35746,39.44613 70.23828,55.04492 3.60858,2.14073 7.20464,5.35761 11.45117,4.92383 4.00645,0.0436 7.08359,-5.02279 6.29492,-9.55078 -1.95731,-7.29314 -4.40744,-14.39706 -7.08594,-21.36524 a 164.85213,38.042803 47.181344 0 1 -97.84961,-84.62109 164.85213,38.042803 47.181344 0 1 -63.75,-81.03515 c -0.93229,-0.21463 -1.86692,-0.41729 -2.80664,-0.59376 -0.86766,-0.20409 -1.74655,-0.30286 -2.62695,-0.30664 z"
           transform="scale(0.26458333)" />
        <path
           id="path20674-36-0-4-3"
           style="fill:#2c3fff;fill-opacity:0.260808;stroke-width:67.0715"
           d="m 258.81445,-514.08008 c -4.09172,-0.0489 -8.162,0.63038 -11.54101,2.43555 -1.65283,0.80938 -3.18906,1.76107 -4.50782,2.85547 -0.79184,0.65616 -1.50482,1.36389 -2.11718,2.12304 -8.09295,9.20958 -13.50493,19.53319 -18.23047,29.9004 -8.97766,20.5203 -12.26642,42.1199 -13.55078,63.58789 -0.6729,11.41901 -0.78538,22.85624 -0.38672,34.2832 a 60,110 0 0 1 51.45508,103.80078 c 2.11831,-2.70707 2.70204,-6.04667 3.82226,-9.03516 9.33676,-27.26741 10.82011,-55.52134 17.07617,-83.18359 3.11997,-13.41755 8.03249,-26.57374 13.97266,-39.44727 1.92816,-4.40674 3.78915,-8.8415 5.7793,-13.24023 a 189.8744,84.821284 89.059487 0 0 -25.00391,-91.36523 c -3.21951,-0.50778 -6.40397,-1.13167 -9.52344,-1.92579 -2.32608,-0.46754 -4.7891,-0.75974 -7.24414,-0.78906 z"
           transform="scale(0.26458333)" />
        <path
           id="path20674-36-0-4-5-7"
           style="fill:#2c3fff;fill-opacity:0.260808;stroke-width:67.0715"
           d="m 521.77148,-514.08008 c -2.45503,0.0293 -4.91805,0.32152 -7.24414,0.78906 -3.11947,0.79412 -6.30392,1.41801 -9.52343,1.92579 A 84.821284,189.8744 0.940513 0 0 480,-420 c 1.99015,4.39873 3.85113,8.83349 5.7793,13.24023 5.94017,12.87353 10.85269,26.02972 13.97265,39.44727 6.25607,27.66225 7.73942,55.91618 17.07617,83.18359 1.45671,3.88614 1.99376,8.37108 6.19727,11.2793 1.59448,1.33424 3.87503,1.95775 6.18945,1.9668 a 60,110 0 0 1 -0.12695,-6.75391 60,110 0 0 1 43.13086,-105.52539 c 0.23596,-10.0065 0.0872,-20.01793 -0.50195,-30.01562 -1.28436,-21.46799 -4.57312,-43.06759 -13.55078,-63.58789 -4.72555,-10.36721 -10.13752,-20.69082 -18.23047,-29.9004 -0.61236,-0.75915 -1.32339,-1.46688 -2.11524,-2.12304 -1.31875,-1.0944 -2.85694,-2.04609 -4.50976,-2.85547 -3.37902,-1.80517 -7.44734,-2.48442 -11.53907,-2.43555 z"
           transform="scale(0.26458333)" />
      </g>
      <g
         id="g65773"
         transform="translate(-79.10091,-326.91673)">
        <path
           id="rect55-6-2"
           style="fill:#654ef0;fill-opacity:1;stroke:none;stroke-width:11.3386;stroke-miterlimit:4;stroke-dasharray:none;stroke-opacity:1"
           d="m 323.03998,125.47866 c -1.662,0 -2.99982,1.33833 -2.99982,3.00033 v 84.00006 c 0,1.662 1.33782,2.99981 2.99982,2.99981 h 84.00005 c 1.66198,0 3.00032,-1.33781 3.00032,-2.99981 v -84.00006 c 0,-1.662 -1.33834,-3.00033 -3.00032,-3.00033 h -32.11846 a 10,10 0 0 1 -2.59469,5.91075 10,10 0 0 1 -14.12936,0.60823 10,10 0 0 1 -3.20135,-6.51898 z" />
        <rect
           style="fill:#e1efe6;fill-opacity:0.639613;stroke:none;stroke-width:8.88112;stroke-miterlimit:4;stroke-dasharray:none;stroke-opacity:1"
           id="rect55-6-9-1"
           width="70.493874"
           height="70.493881"
           x="329.79324"
           y="136.81938"
           ry="3.96875"
           rx="3.96875" />
        <path
           style="fill:#654ef0;fill-opacity:1;stroke:none"
           id="path18310-2-5"
           inkscape:flatsided="false"
           sodipodi:sides="6"
           sodipodi:cx="660"
           sodipodi:cy="-160"
           sodipodi:r1="32"
           sodipodi:r2="100"
           sodipodi:arg1="0.92729522"
           sodipodi:arg2="1.450894"
           inkscape:rounded="0.42"
           inkscape:randomized="0.089"
           transform="matrix(0,-0.4859789,-0.42388655,0,296.28661,492.34108)"
           inkscape:transform-center-x="-3.858154"
           inkscape:transform-center-y="0.22799556"
           sodipodi:type="star"
           d="m 678.09959,-132.94424 c -22.97618,19.81594 21.60964,69.690081 -9.31331,75.07911 -30.92295,5.389029 9.12695,-60.53686 -19.16697,-70.88339 -28.29392,-10.34654 -54.82796,47.318869 -76.04495,23.58799 -21.21699,-23.73088 67.46919,-17.10983 61.06837,-47.83632 -6.40081,-30.72648 -72.32299,-11.42763 -61.19656,-39.48544 11.12643,-28.05782 45.30861,30.01418 67.14435,9.82683 21.83574,-20.18735 -18.91899,-76.78012 12.92893,-81.47599 31.84792,-4.69587 -13.18476,68.83176 15.55135,77.28027 28.73611,8.44851 61.12459,-66.01846 76.06327,-39.85028 14.93867,26.16818 -67.50009,33.2992 -61.0867,64.0986 6.4134,30.79941 75.33638,4.32296 64.81219,33.08857 -10.5242,28.76561 -47.7838,-23.24589 -70.75997,-3.42995 z" />
        <path
           id="rect55-6-1-6"
           style="fill:#3013e0;fill-opacity:0.280602;stroke:none;stroke-width:11.3386;stroke-miterlimit:4;stroke-dasharray:none;stroke-opacity:1"
           d="m 321.24297,126.00799 c -0.73008,0.5462 -1.20304,1.41544 -1.20304,2.4014 v 84.00007 c 0,1.662 1.33783,2.99982 2.99982,2.99982 h 84.00004 c 0.32683,0 0.64024,-0.0536 0.93431,-0.14934 a 81.068346,62.332459 41.271635 0 1 -50.48994,-20.79152 81.068346,62.332459 41.271635 0 1 -36.24119,-68.46043 z" />
      </g>
    </g>
    <g
       id="g75501"
       transform="translate(-6.8791713,-6.6103286)">
      <g
         aria-label="ROS2"
         transform="matrix(0.59513659,0,0,0.67990556,-37.034813,-101.39715)"
         id="text3575"
         style="font-size:79.8603px;line-height:1.25;white-space:pre;shape-inside:url(#rect3577);fill:#e1efe6">
        <path
           d="m 119.77733,199.52883 h -3.03469 v 19.80535 h -16.45123 v -55.58277 h 20.36438 q 12.05891,0 17.96857,4.31246 5.90966,4.23259 5.90966,13.33667 0,5.19092 -2.31595,8.62491 -2.31595,3.43399 -7.50687,6.46868 l 13.57625,22.84005 h -18.20814 z m -3.03469,-11.02073 h 4.31245 q 3.35413,0 5.0312,-1.75692 1.67707,-1.75693 1.67707,-5.35064 0,-6.38883 -7.50687,-6.38883 h -3.51385 z"
           style="font-weight:900;font-family:'Fira Sans';-inkscape-font-specification:'Fira Sans, Heavy'"
           id="path65240" />
        <path
           d="m 173.04393,162.15421 q 12.45821,0 19.16647,7.74645 6.78813,7.66658 6.78813,21.56228 0,9.02421 -3.03469,15.65261 -3.03469,6.62841 -8.86449,10.22212 -5.82981,3.59372 -14.05542,3.59372 -12.4582,0 -19.24633,-7.74645 -6.70826,-7.82631 -6.70826,-21.722 0,-9.02422 3.03469,-15.57276 3.03469,-6.62841 8.86449,-10.14226 5.8298,-3.59371 14.05541,-3.59371 z m 0,11.6596 q -4.71175,0 -6.78812,4.07287 -2.07637,3.99302 -2.07637,13.57626 0,9.58323 2.07637,13.73597 2.07637,4.07287 6.78812,4.07287 4.79162,0 6.78813,-4.07287 2.07637,-4.07288 2.07637,-13.73597 0,-9.58324 -2.07637,-13.57626 -2.07637,-4.07287 -6.78813,-4.07287 z"
           style="font-weight:900;font-family:'Fira Sans';-inkscape-font-specification:'Fira Sans, Heavy'"
           id="path65242" />
        <path
           d="m 224.47386,162.15421 q 12.69778,0 20.52409,7.58672 l -7.26728,8.54506 q -5.59023,-4.47218 -11.89919,-4.47218 -2.95483,0 -4.47218,1.03818 -1.51734,1.03819 -1.51734,2.95483 0,1.43749 0.7986,2.39581 0.87846,0.87847 2.79511,1.67707 1.99651,0.7986 6.38883,2.23609 8.78463,2.79511 12.61792,7.0277 3.91316,4.2326 3.91316,11.57975 0,5.35064 -2.87497,9.50337 -2.79511,4.07288 -8.06589,6.38883 -5.27078,2.31595 -12.45821,2.31595 -7.34715,0 -12.93737,-2.31595 -5.59022,-2.31595 -9.42351,-6.06939 l 8.06589,-8.86449 q 6.30896,5.4305 13.65611,5.4305 3.43399,0 5.19092,-1.35762 1.75692,-1.43749 1.75692,-3.67358 0,-1.67706 -0.7986,-2.79511 -0.71874,-1.11804 -2.63539,-2.07637 -1.91665,-0.95832 -5.59022,-2.07636 -9.6631,-3.03469 -13.49639,-7.26729 -3.83329,-4.31246 -3.83329,-10.70128 0,-5.19092 2.79511,-9.02421 2.79511,-3.8333 7.66658,-5.90967 4.95134,-2.07636 11.10059,-2.07636 z"
           style="font-weight:900;font-family:'Fira Sans';-inkscape-font-specification:'Fira Sans, Heavy'"
           id="path65244" />
        <path
           d="m 266.24072,163.75141 q 6.46868,0 11.02072,2.15623 4.55204,2.15623 6.78813,5.8298 2.31594,3.59372 2.31594,7.90617 0,4.07288 -1.51734,7.58673 -1.43749,3.51385 -5.74994,8.30547 -4.2326,4.79162 -12.61793,11.97905 h 21.00326 l -1.59721,11.81932 h -37.29476 v -10.861 q 9.2638,-8.78463 13.65611,-13.49639 4.47218,-4.71176 6.22911,-7.74645 1.75692,-3.03469 1.75692,-5.8298 0,-2.71525 -1.51734,-4.2326 -1.51735,-1.5972 -4.2326,-1.5972 -2.63539,0 -4.79162,1.35762 -2.07636,1.27777 -4.31245,4.07288 l -9.02421,-7.18743 q 3.43399,-4.6319 8.46519,-7.34715 5.0312,-2.71525 11.42002,-2.71525 z"
           style="font-weight:900;font-family:'Fira Sans';-inkscape-font-specification:'Fira Sans, Heavy'"
           id="path65246" />
      </g>
      <g
         aria-label="+"
         transform="matrix(2.8654533,0,0,2.8913432,-927.727,-1076.7337)"
         id="text30841"
         style="font-weight:500;font-size:17.6489px;line-height:1.25;font-family:'Fira Sans';-inkscape-font-specification:'Fira Sans Medium';white-space:pre;shape-inside:url(#rect30843);fill:#e1efe6">
        <path
           d="m 351.77801,391.94898 v 2.70028 h 2.62969 v 1.78254 h -2.62969 v 2.70028 h -1.94138 v -2.70028 h -2.61203 v -1.78254 h 2.61203 v -2.70028 z"
           id="path65219" />
      </g>
      <g
         aria-label="WASM"
         transform="matrix(0.26458333,0,0,0.26458333,-7.203173,-61.338778)"
         id="text50643"
         style="font-weight:900;font-size:192px;line-height:1.25;font-family:'Fira Sans';-inkscape-font-specification:'Fira Sans Heavy';white-space:pre;shape-inside:url(#rect50645);fill:#e1efe6">
        <path
           d="m 218.15261,552.13402 -19.392,133.632 h -51.456 l -11.904,-96 -13.248,96 H 71.848609 l -18.624,-133.632 h 39.552 l 8.448001,105.024 14.208,-105.024 h 41.28 l 11.904,105.024 11.52,-105.024 z"
           id="path65192" />
        <path
           d="m 296.48847,685.76602 -5.184,-25.92 h -31.68 l -4.992,25.92 h -41.28 l 38.976,-133.632 h 47.232 l 38.784,133.632 z m -31.296,-53.568 h 20.544 l -10.368,-52.416 z"
           id="path65194" />
        <path
           d="m 390.95243,548.29402 q 30.528,0 49.344,18.24 l -17.472,20.544 q -13.44,-10.752 -28.608,-10.752 -7.104,0 -10.752,2.496 -3.648,2.496 -3.648,7.104 0,3.456 1.92,5.76 2.112,2.112 6.72,4.032 4.8,1.92 15.36,5.376 21.12,6.72 30.336,16.896 9.408,10.176 9.408,27.84 0,12.864 -6.912,22.848 -6.72,9.792 -19.392,15.36 -12.672,5.568 -29.952,5.568 -17.664,0 -31.104,-5.568 -13.44,-5.568 -22.656,-14.592 l 19.392,-21.312 q 15.168,13.056 32.832,13.056 8.256,0 12.48,-3.264 4.224,-3.456 4.224,-8.832 0,-4.032 -1.92,-6.72 -1.728,-2.688 -6.336,-4.992 -4.608,-2.304 -13.44,-4.992 -23.232,-7.296 -32.448,-17.472 -9.216,-10.368 -9.216,-25.728 0,-12.48 6.72,-21.696 6.72,-9.216 18.432,-14.208 11.904,-4.992 26.688,-4.992 z"
           id="path65196" />
        <path
           d="m 593.51226,685.76602 h -38.976 l -0.96,-47.424 q -0.192,-5.568 -0.192,-16.704 0,-19.584 1.536,-37.824 l -15.744,88.512 h -37.44 l -16.896,-88.512 q 2.496,26.688 2.496,45.696 v 8.64 l -0.96,47.616 h -38.976 l 9.6,-133.632 h 48.768 l 15.36,86.592 13.824,-86.592 h 48.96 z"
           id="path65198" />
      </g>
    </g>
  </g>
</svg>
